# xmcd
# Track frame offsets:
# 150
# 17356
# 33571
# 49190
# 66257
# 80382
# 94224
# 108722
# 125319
# 141858
# 158339
# 174523
# 192638
# 208308
# 223436
# 240092
# 254562
# 272366
# 286994
# 304984
# 328332
#
# Disc length: 4599 seconds
# Revision: 0
# Processed by: cddbd v1.5.2PL0 Copyright (c) Steve Scherf et al.
# Submitted via: VisiTrax 2.11.1.266 - For more info visit www.synapsa.com
#
DISCID=3c11f515
DTITLE=Various Artist - Country Hits 11-20-09 Disc #2
DYEAR=2009
DGENRE=Country
TTITLE0=Billy Currington - Don't
TTITLE1=Blake Shelton - She Wouldn't Be Gone
TTITLE2=Ashton Shephard - Sounds So Good
TTITLE3=Trace Adkins - Muddy Water
TTITLE4=Randy Houser - Anything Goes
TTITLE5=Jake Owens - Don't Think I Can't Love You
TTITLE6=Lee Ann Womack - Last Call
TTITLE7=Brooks And Dunn - Cowgirls Don't Cry
TTITLE8=Phill Vasser - I Would
TTITLE9=Pat Green - Let Me
TTITLE10=Josh Turner - Everything Is Fine
TTITLE11=Little Big Town - Fine Line
TTITLE12=Miranda Lambert - More Like Her
TTITLE13=Gary Allen - She's So California
TTITLE14=Eli Young Band - Always The Love Song
TTITLE15=Josh Gracim - Unbelievable ( Ann Marie)
TTITLE16=Jimmy Wayne - I Will
TTITLE17=Chris Ledoux - Even Cowboys Like A Little Rock
TTITLE18=Jessica Simpson - These Boots Are Made For Walking
TTITLE19=Jane Siberry - Calling All Angels
TTITLE20=Kelly Clarkson - Because Of You (Ft Reba)
EXTD=
EXTT0=
EXTT1=
EXTT2=
EXTT3=
EXTT4=
EXTT5=
EXTT6=
EXTT7=
EXTT8=
EXTT9=
EXTT10=
EXTT11=
EXTT12=
EXTT13=
EXTT14=
EXTT15=
EXTT16=
EXTT17=
EXTT18=
EXTT19=
EXTT20=
PLAYORDER=
